<svg xmlns="http://www.w3.org/2000/svg" version="1.1" width="1024" height="680">
<rect x="0" y="0" width="1024" height="680" fill="#05416c" />
<g transform="scale(4.000000) translate(0.5 0.5)">
<polygon fill="#078ad8" fill-opacity="0.501961" points="-16,123 271,42 246,150" />
<polygon fill="#090000" fill-opacity="0.501961" points="-12,116 -16,181 129,176" />
<polygon fill="#000212" fill-opacity="0.501961" points="1,56 -2,-16 271,4" />
<polygon fill="#0d0000" fill-opacity="0.501961" points="271,165 104,141 105,185" />
<polygon fill="#22bfef" fill-opacity="0.501961" points="271,119 185,173 271,40" />
<polygon fill="#0377cf" fill-opacity="0.501961" points="93,159 8,104 168,38" />
<polygon fill="#000000" fill-opacity="0.501961" points="179,180 260,130 267,171" />
<polygon fill="#022246" fill-opacity="0.501961" points="192,112 271,2 117,-16" />
<polygon fill="#0c0000" fill-opacity="0.501961" points="10,52 26,185 -16,155" />
<polygon fill="#000000" fill-opacity="0.501961" points="-16,163 90,185 54,135" />
<polygon fill="#44818c" fill-opacity="0.501961" points="-12,108 62,135 33,146" />
<polygon fill="#061616" fill-opacity="0.501961" points="151,132 179,126 183,185" />
<polygon fill="#0da4e3" fill-opacity="0.501961" points="53,126 71,157 101,140" />
<polygon fill="#074e97" fill-opacity="0.501961" points="146,1 102,59 212,127" />
<polygon fill="#080300" fill-opacity="0.501961" points="122,140 246,185 52,185" />
<polygon fill="#000000" fill-opacity="0.501961" points="271,123 268,185 186,179" />
<polygon fill="#86dcff" fill-opacity="0.501961" points="241,136 270,120 271,46" />
<polygon fill="#02192b" fill-opacity="0.501961" points="144,33 271,34 248,-16" />
<polygon fill="#0667b8" fill-opacity="0.501961" points="151,55 87,80 156,163" />
<polygon fill="#007bb3" fill-opacity="0.501961" points="173,153 259,63 207,159" />
<polygon fill="#035393" fill-opacity="0.501961" points="156,44 17,128 14,76" />
<polygon fill="#050000" fill-opacity="0.501961" points="215,148 271,146 214,185" />
<polygon fill="#000000" fill-opacity="0.501961" points="134,175 1,185 -5,131" />
<polygon fill="#010914" fill-opacity="0.501961" points="-16,28 1,-16 133,2" />
<polygon fill="#020000" fill-opacity="0.501961" points="-16,57 -11,166 16,79" />
<polygon fill="#02477e" fill-opacity="0.501961" points="198,111 271,33 145,78" />
<polygon fill="#03325c" fill-opacity="0.501961" points="143,32 20,31 -16,77" />
<polygon fill="#091210" fill-opacity="0.501961" points="113,134 122,176 133,135" />
<polygon fill="#0083c0" fill-opacity="0.501961" points="94,122 100,161 30,124" />
<polygon fill="#0d4d68" fill-opacity="0.501961" points="203,163 154,144 190,132" />
<polygon fill="#133b48" fill-opacity="0.501961" points="100,161 98,140 116,147" />
<polygon fill="#000000" fill-opacity="0.501961" points="271,168 260,126 209,172" />
<polygon fill="#3daedb" fill-opacity="0.501961" points="249,134 253,99 226,150" />
<polygon fill="#000000" fill-opacity="0.501961" points="136,169 193,182 180,149" />
<polygon fill="#041521" fill-opacity="0.501961" points="168,143 177,138 161,121" />
<polygon fill="#015799" fill-opacity="0.501961" points="242,67 178,130 129,106" />
<polygon fill="#06335f" fill-opacity="0.501961" points="183,83 133,-15 177,16" />
<polygon fill="#415b5c" fill-opacity="0.501961" points="15,133 12,109 40,149" />
<polygon fill="#000000" fill-opacity="0.501961" points="26,131 -16,184 35,185" />
<polygon fill="#057bb8" fill-opacity="0.501961" points="164,141 164,151 137,139" />
<polygon fill="#00a8e4" fill-opacity="0.501961" points="239,96 233,139 271,66" />
<polygon fill="#010000" fill-opacity="0.501961" points="89,168 42,140 -12,185" />
<polygon fill="#489fd3" fill-opacity="0.501961" points="67,146 72,144 73,162" />
<polygon fill="#03679c" fill-opacity="0.501961" points="6,103 96,93 36,136" />
<polygon fill="#056ab6" fill-opacity="0.501961" points="95,75 118,86 113,152" />
<polygon fill="#10789f" fill-opacity="0.501961" points="215,144 194,156 167,153" />
<polygon fill="#0d7bd3" fill-opacity="0.501961" points="122,79 139,54 138,90" />
<polygon fill="#4a94bd" fill-opacity="0.501961" points="255,129 238,132 225,152" />
<polygon fill="#070d0a" fill-opacity="0.501961" points="105,164 100,146 158,150" />
<polygon fill="#305569" fill-opacity="0.501961" points="189,148 206,162 189,166" />
<polygon fill="#49829c" fill-opacity="0.501961" points="40,130 26,127 30,144" />
<polygon fill="#042c56" fill-opacity="0.501961" points="101,53 148,5 19,53" />
<polygon fill="#000000" fill-opacity="0.501961" points="16,87 -1,108 -16,69" />
<polygon fill="#033c68" fill-opacity="0.501961" points="248,22 164,78 271,49" />
<polygon fill="#02172d" fill-opacity="0.501961" points="212,24 271,1 130,-16" />
<polygon fill="#0267af" fill-opacity="0.501961" points="163,137 143,120 162,118" />
<polygon fill="#335d63" fill-opacity="0.501961" points="147,159 160,158 142,165" />
<polygon fill="#055b87" fill-opacity="0.501961" points="23,127 48,73 9,111" />
<polygon fill="#000000" fill-opacity="0.501961" points="64,172 121,179 77,153" />
<polygon fill="#058bbe" fill-opacity="0.501961" points="192,142 204,161 245,113" />
<polygon fill="#023c68" fill-opacity="0.501961" points="-13,44 92,54 8,70" />
<polygon fill="#007dc1" fill-opacity="0.501961" points="220,141 222,97 271,44" />
<polygon fill="#000000" fill-opacity="0.501961" points="-16,99 4,185 19,140" />
<polygon fill="#033d59" fill-opacity="0.501961" points="183,141 200,160 188,131" />
<polygon fill="#064d8d" fill-opacity="0.501961" points="203,106 136,25 154,105" />
<polygon fill="#0182c2" fill-opacity="0.501961" points="60,114 70,138 34,132" />
<polygon fill="#182324" fill-opacity="0.501961" points="39,136 36,146 52,142" />
<polygon fill="#010008" fill-opacity="0.501961" points="-16,26 50,-16 -16,-4" />
<polygon fill="#0365ac" fill-opacity="0.501961" points="106,77 138,148 170,119" />
<polygon fill="#113f4b" fill-opacity="0.501961" points="132,143 146,145 153,156" />
<polygon fill="#017ab3" fill-opacity="0.501961" points="199,119 231,112 188,155" />
<polygon fill="#0365aa" fill-opacity="0.501961" points="110,94 96,124 106,148" />
<polygon fill="#03284a" fill-opacity="0.501961" points="264,20 208,50 138,31" />
<polygon fill="#031e38" fill-opacity="0.501961" points="-16,24 76,39 169,-9" />
<polygon fill="#4c95bd" fill-opacity="0.501961" points="206,162 199,153 212,152" />
<polygon fill="#034e92" fill-opacity="0.501961" points="113,58 73,90 6,93" />
<polygon fill="#0b83b7" fill-opacity="0.501961" points="183,152 194,164 186,144" />
<polygon fill="#27404c" fill-opacity="0.501961" points="216,146 227,147 224,154" />
<polygon fill="#0270b8" fill-opacity="0.501961" points="32,111 142,122 93,141" />
<polygon fill="#47696d" fill-opacity="0.501961" points="22,139 0,114 23,123" />
<polygon fill="#0f181c" fill-opacity="0.501961" points="203,162 200,156 190,159" />
<polygon fill="#000000" fill-opacity="0.501961" points="110,164 220,167 146,185" />
<polygon fill="#091011" fill-opacity="0.501961" points="116,170 141,139 122,185" />
<polygon fill="#141a1a" fill-opacity="0.501961" points="182,156 182,150 161,148" />
<polygon fill="#091118" fill-opacity="0.501961" points="192,154 197,155 196,150" />
<polygon fill="#78caf6" fill-opacity="0.501961" points="271,53 271,127 248,128" />
<polygon fill="#1883b6" fill-opacity="0.501961" points="86,145 99,162 61,143" />
<polygon fill="#010000" fill-opacity="0.501961" points="29,136 -16,159 14,184" />
<polygon fill="#050701" fill-opacity="0.501961" points="165,155 148,150 156,148" />
<polygon fill="#0755a3" fill-opacity="0.501961" points="133,61 125,38 69,103" />
<polygon fill="#0a2633" fill-opacity="0.501961" points="111,148 106,134 107,156" />
<polygon fill="#57a0c3" fill-opacity="0.501961" points="188,164 198,165 196,161" />
<polygon fill="#063f73" fill-opacity="0.501961" points="140,28 203,68 173,86" />
<polygon fill="#062436" fill-opacity="0.501961" points="174,142 154,132 153,139" />
<polygon fill="#040e16" fill-opacity="0.501961" points="165,135 165,130 182,132" />
<polygon fill="#034078" fill-opacity="0.501961" points="13,84 116,56 20,56" />
<polygon fill="#025da9" fill-opacity="0.501961" points="85,116 28,105 97,80" />
<polygon fill="#020000" fill-opacity="0.501961" points="248,163 201,174 217,150" />
<polygon fill="#1c3449" fill-opacity="0.501961" points="67,149 54,143 66,145" />
<polygon fill="#0264a3" fill-opacity="0.501961" points="238,85 198,129 143,124" />
</g>
</svg>